Coordinates
version=1
nRows=19
nColumns=24
inDegrees=yes

Units are S.I. units (second, meters, Newtons, ...)
Angles are in degrees.

endheader
time	pelvis_tilt	pelvis_list	pelvis_rotation	pelvis_tx	pelvis_ty	pelvis_tz	hip_flexion_r	hip_adduction_r	hip_rotation_r	knee_angle_r	ankle_angle_r	subtalar_angle_r	mtp_angle_r	hip_flexion_l	hip_adduction_l	hip_rotation_l	knee_angle_l	ankle_angle_l	subtalar_angle_l	mtp_angle_l	lumbar_extension	lumbar_bending	lumbar_rotation
      3.19500000	    -10.52264218	     -3.86023437	     -1.43517269	     -1.29170752	     -0.01504799	      0.46402997	      4.45713453	     10.13496143	     14.74163129	     -9.03592383	      1.69293815	    -10.42721990	     -1.07575993	     36.85639788	     -5.07356899	      1.31990058	    -40.26478590	     -3.56287796	      2.40097926	     16.07147487	      8.30158233	      4.48921501	      8.24583291
      3.20000000	    -10.59835710	     -3.64398785	     -1.72346855	     -1.28492468	     -0.01565493	      0.46446988	      3.97669934	      9.94425598	     15.21339251	     -8.86198083	      1.85741170	    -10.69573587	     -1.33807902	     37.08859988	     -5.02635213	      0.97290371	    -38.56766250	     -3.47421684	      2.39149511	     15.31180727	      8.34943224	      4.34386860	      8.60507267
      3.20500000	    -10.59868445	     -3.42601799	     -1.97642334	     -1.27809346	     -0.01625032	      0.46486966	      3.40574033	      9.74285352	     15.67568847	     -8.67858663	      2.02057703	    -11.00057350	     -1.77192875	     37.20635138	     -4.97132618	      0.60514098	    -36.84617319	     -3.31741104	      2.54032940	     14.28522295	      8.32135884	      4.19134371	      8.91325965
      3.21000000	    -10.71186381	     -3.23323129	     -2.30541948	     -1.27134836	     -0.01709516	      0.46530662	      3.01205016	      9.58093994	     16.14100924	     -8.59328252	      2.25855202	    -11.21911011	     -2.00209474	     37.41782987	     -4.98484866	      0.18793620	    -35.06842087	     -3.32975445	      2.46642580	     13.58325257	      8.39755906	      4.09107990	      9.33626528
      3.21500000	    -10.72216553	     -3.01937216	     -2.60108951	     -1.26451167	     -0.01786929	      0.46576592	      2.48671539	      9.38642499	     16.60352037	     -8.47864660	      2.47551041	    -11.47722379	     -2.38156296	     37.47872714	     -4.97895281	     -0.28832954	    -33.26102364	     -3.31872212	      2.53721657	     12.71897077	      8.37566696	      3.94568011	      9.69826539
      3.22000000	    -10.84023820	     -2.84414695	     -2.93993009	     -1.25770848	     -0.01889320	      0.46623226	      2.11752865	      9.24005411	     17.03747609	     -8.43298006	      2.75158472	    -11.64961321	     -2.55652222	     37.65012798	     -5.04361276	     -0.84724021	    -31.44513144	     -3.41804974	      2.47842937	     12.11536401	      8.46484846	      3.85992574	     10.06353959
      3.22500000	    -10.78605744	     -2.63496667	     -3.24811555	     -1.25085244	     -0.01975221	      0.46668006	      1.55072972	      9.04043884	     17.45772114	     -8.37414942	      3.02459082	    -11.84312694	     -2.93979605	     37.58598977	     -5.05320654	     -1.40521425	    -29.60356097	     -3.43898361	      2.58891854	     11.31523720	      8.36654712	      3.72442381	     10.47848181
      3.23000000	    -10.83834487	     -2.46606436	     -3.58287146	     -1.24396256	     -0.02085814	      0.46711304	      1.12438696	      8.88591536	     17.83069208	     -8.36265127	      3.35734710	    -11.94269585	     -3.13519674	     37.64010906	     -5.12025697	     -2.04424734	    -27.78769331	     -3.50214326	      2.62005291	     10.75069898	      8.38988937	      3.64592308	     10.86502022
      3.23500000	    -10.87267666	     -2.29746121	     -3.91324157	     -1.23708686	     -0.02196814	      0.46753283	      0.68533186	      8.71832899	     18.20610272	     -8.35530002	      3.68016900	    -11.98287584	     -3.25506202	     37.66685798	     -5.18469948	     -2.72827501	    -25.98879505	     -3.63486576	      2.72081861	     10.28413313	      8.38704270	      3.56445288	     11.22599226
      3.24000000	    -10.75993395	     -2.09890130	     -4.20923830	     -1.23011919	     -0.02296645	      0.46792041	      0.08606243	      8.49937049	     18.47401209	     -8.34617216	      4.04427734	    -11.97518630	     -3.44949429	     37.50215263	     -5.18163864	     -3.40275790	    -24.19614446	     -3.67436803	      2.92770747	      9.80962736	      8.23489805	      3.43000323	     11.61300247
      3.24500000	    -10.75482426	     -1.94236054	     -4.53214052	     -1.22312748	     -0.02417200	      0.46824838	     -0.38275819	      8.32020970	     18.74655539	     -8.36344911	      4.41973755	    -11.90204236	     -3.45820174	     37.47484864	     -5.22148821	     -4.10609319	    -22.48482762	     -3.72043576	      3.09204635	      9.51024643	      8.20251262	      3.36289015	     11.98158508
      3.25000000	    -10.64762869	     -1.75680795	     -4.81550330	     -1.21611456	     -0.02527287	      0.46853200	     -0.95736226	      8.08659143	     18.94812786	     -8.37467882	      4.80464704	    -11.75545535	     -3.41500618	     37.33021483	     -5.19057786	     -4.77276393	    -20.81397047	     -3.77121187	      3.36560930	      9.27852532	      8.05886905	      3.24331003	     12.32393554
      3.25500000	    -10.58509297	     -1.59277276	     -5.11993528	     -1.20905695	     -0.02648285	      0.46876864	     -1.47394913	      7.86838814	     19.13232399	     -8.40414345	      5.18839548	    -11.56890120	     -3.25981758	     37.24874135	     -5.17041305	     -5.41412466	    -19.23899843	     -3.77396899	      3.61733727	      9.14005563	      7.96850117	      3.16140251	     12.68133702
      3.26000000	    -10.45943960	     -1.41071769	     -5.38956045	     -1.20198152	     -0.02763815	      0.46894624	     -2.05004627	      7.61102376	     19.24878566	     -8.43544908	      5.57911707	    -11.31574106	     -3.01504861	     37.10490079	     -5.08807818	     -5.96276497	    -17.73878849	     -3.76883589	      3.93426631	      9.06437117	      7.81182121	      3.04375438	     13.00834600
      3.26500000	    -10.33750419	     -1.22728255	     -5.64882653	     -1.19486565	     -0.02882248	      0.46906816	     -2.61170508	      7.34217725	     19.32061352	     -8.48040704	      5.96469397	    -11.02458580	     -2.69057778	     36.97765949	     -4.97440827	     -6.41060901	    -16.33851851	     -3.73608568	      4.25286244	      9.03480606	      7.66430339	      2.92467953	     13.31985624
      3.27000000	    -10.29638373	     -1.02569633	     -5.89796837	     -1.18767584	     -0.03010352	      0.46917371	     -3.07290391	      7.05928134	     19.38550710	     -8.55147237	      6.33449947	    -10.75112345	     -2.36905822	     36.95270564	     -4.82672266	     -6.76491856	    -15.04813266	     -3.69539701	      4.58444542	      9.02175965	      7.61439544	      2.78688021	     13.59547704
      3.27500000	    -10.13271729	     -0.83288310	     -6.14922770	     -1.18053665	     -0.03125386	      0.46924532	     -3.64896372	      6.76046908	     19.37353753	     -8.63854434	      6.73390940	    -10.32648779	     -1.92136751	     36.79226274	     -4.66226714	     -6.97185268	    -13.84462159	     -3.60252156	      4.95335923	      9.06816609	      7.42163823	      2.64806000	     13.91455123
      3.28000000	     -9.99840634	     -0.62503322	     -6.35997717	     -1.17332379	     -0.03243543	      0.46927483	     -4.18533013	      6.44676353	     19.30278154	     -8.73601644	      7.09775185	     -9.92565770	     -1.45773965	     36.67064879	     -4.44665941	     -7.01871182	    -12.73963275	     -3.52694574	      5.28347770	      9.11800465	      7.27339236	      2.48143755	     14.17307562
      3.28500000	     -9.86099423	     -0.42137452	     -6.56523412	     -1.16613447	     -0.03359852	      0.46927932	     -4.70345112	      6.13518325	     19.20006669	     -8.86659024	      7.43759486	     -9.49569985	     -0.96058640	     36.55101462	     -4.22272078	     -6.92441589	    -11.73794230	     -3.45859321	      5.61035422	      9.18735151	      7.11540270	      2.31851158	     14.43845049
